<svg xmlns="http://www.w3.org/2000/svg" width="15.993" height="15.993" viewBox="0 0 15.993 15.993">
  <path id="Icon_material-call" data-name="Icon material-call" d="M67.216,70.921a13.46,13.46,0,0,0,5.855,5.855l1.955-1.955a.883.883,0,0,1,.906-.213,10.135,10.135,0,0,0,3.172.506.891.891,0,0,1,.889.889v3.1a.891.891,0,0,1-.889.889A15.1,15.1,0,0,1,64,64.889.891.891,0,0,1,64.889,64H68a.891.891,0,0,1,.889.889,10.094,10.094,0,0,0,.506,3.172.892.892,0,0,1-.222.906Z" transform="translate(-64 -64)" opacity="0.64"/>
</svg>
