<svg xmlns="http://www.w3.org/2000/svg" width="19.248" height="19.244" viewBox="0 0 19.248 19.244">
  <path id="Icon_awesome-instagram" data-name="Icon awesome-instagram" d="M9.551,36.513a4.934,4.934,0,1,0,4.934,4.934A4.926,4.926,0,0,0,9.551,36.513Zm0,8.142a3.208,3.208,0,1,1,3.208-3.208A3.214,3.214,0,0,1,9.551,44.655Zm6.287-8.344a1.151,1.151,0,1,1-1.151-1.151A1.148,1.148,0,0,1,15.838,36.311Zm3.268,1.168a5.7,5.7,0,0,0-1.554-4.032,5.733,5.733,0,0,0-4.032-1.554c-1.589-.09-6.351-.09-7.94,0a5.724,5.724,0,0,0-4.032,1.55A5.714,5.714,0,0,0-.007,37.475c-.09,1.589-.09,6.351,0,7.94a5.7,5.7,0,0,0,1.554,4.032A5.74,5.74,0,0,0,5.579,51c1.589.09,6.351.09,7.94,0a5.7,5.7,0,0,0,4.032-1.554,5.733,5.733,0,0,0,1.554-4.032C19.2,43.826,19.2,39.068,19.106,37.479Zm-2.053,9.64a3.248,3.248,0,0,1-1.829,1.829c-1.267.5-4.273.386-5.673.386s-4.41.112-5.673-.386A3.248,3.248,0,0,1,2.05,47.12c-.5-1.267-.386-4.273-.386-5.673s-.112-4.41.386-5.673a3.248,3.248,0,0,1,1.829-1.829c1.267-.5,4.273-.386,5.673-.386s4.41-.112,5.673.386a3.248,3.248,0,0,1,1.829,1.829c.5,1.267.386,4.273.386,5.673S17.556,45.857,17.053,47.12Z" transform="translate(0.075 -31.825)" opacity="0.64"/>
</svg>
